<svg width="18" height="30" viewBox="0 0 18 30" fill="none" xmlns="http://www.w3.org/2000/svg">
<path d="M14.3182 0H3.40909C1.52727 0 0 1.52727 0 3.40909V26.5909C0 28.4727 1.52727 30 3.40909 30H14.3182C16.2 30 17.7273 28.4727 17.7273 26.5909V3.40909C17.7273 1.52727 16.2 0 14.3182 0ZM8.86364 28.6364C7.73182 28.6364 6.81818 27.7227 6.81818 26.5909C6.81818 25.4591 7.73182 24.5455 8.86364 24.5455C9.99546 24.5455 10.9091 25.4591 10.9091 26.5909C10.9091 27.7227 9.99546 28.6364 8.86364 28.6364ZM15 23.1818H2.72727V4.09091H15V23.1818Z" fill="#110844"/>
</svg>
