<svg width="21" height="21" viewBox="0 0 21 21" fill="none" xmlns="http://www.w3.org/2000/svg">
<path d="M11.5417 5.29166H9.45833V9.45833H5.29166V11.5417H9.45833V15.7083H11.5417V11.5417H15.7083V9.45833H11.5417V5.29166ZM10.5 0.0833282C4.75 0.0833282 0.0833282 4.75 0.0833282 10.5C0.0833282 16.25 4.75 20.9167 10.5 20.9167C16.25 20.9167 20.9167 16.25 20.9167 10.5C20.9167 4.75 16.25 0.0833282 10.5 0.0833282ZM10.5 18.8333C5.90625 18.8333 2.16666 15.0937 2.16666 10.5C2.16666 5.90625 5.90625 2.16666 10.5 2.16666C15.0937 2.16666 18.8333 5.90625 18.8333 10.5C18.8333 15.0937 15.0937 18.8333 10.5 18.8333Z" fill="#666666"/>
</svg>
